<svg width="41" height="40" viewBox="0 0 41 40" fill="none" xmlns="http://www.w3.org/2000/svg">
<path d="M5.29663 12.4L20.0502 20.9167L34.7034 12.45" stroke="black" stroke-width="2" stroke-linecap="round" stroke-linejoin="round"/>
<path d="M20.05 36.0167V20.9" stroke="black" stroke-width="2" stroke-linecap="round" stroke-linejoin="round"/>
<path d="M16.5915 4.13334L7.66923 9.08339C5.64751 10.2001 3.99341 13 3.99341 15.3V24.7167C3.99341 27.0167 5.64751 29.8167 7.66923 30.9334L16.5915 35.8834C18.4963 36.9334 21.6208 36.9334 23.5255 35.8834L32.4479 30.9334C34.4696 29.8167 36.1237 27.0167 36.1237 24.7167V15.3C36.1237 13 34.4696 10.2001 32.4479 9.08339L23.5255 4.13334C21.6041 3.06667 18.4963 3.06667 16.5915 4.13334Z" stroke="black" stroke-width="2" stroke-linecap="round" stroke-linejoin="round"/>
<path d="M28.4044 22.0666V15.9667L12.5481 6.83329" stroke="black" stroke-width="2" stroke-linecap="round" stroke-linejoin="round"/>
</svg>
