<svg width="40" height="40" viewBox="0 0 40 40" fill="none" xmlns="http://www.w3.org/2000/svg">
<path d="M36.6663 12.5832C36.6663 13.6832 35.7663 14.5832 34.6663 14.5832H5.33301C4.23301 14.5832 3.33301 13.6832 3.33301 12.5832V12.5665C3.33301 8.74984 6.41634 5.6665 10.233 5.6665H29.7497C33.5663 5.6665 36.6663 8.7665 36.6663 12.5832Z" fill="white"/>
<path d="M3.33301 19.0835V27.4335C3.33301 31.2502 6.41634 34.3335 10.233 34.3335H29.7497C33.5663 34.3335 36.6663 31.2335 36.6663 27.4168V19.0835C36.6663 17.9835 35.7663 17.0835 34.6663 17.0835H5.33301C4.23301 17.0835 3.33301 17.9835 3.33301 19.0835ZM13.333 28.7502H9.99967C9.31634 28.7502 8.74967 28.1835 8.74967 27.5002C8.74967 26.8168 9.31634 26.2502 9.99967 26.2502H13.333C14.0163 26.2502 14.583 26.8168 14.583 27.5002C14.583 28.1835 14.0163 28.7502 13.333 28.7502ZM24.1663 28.7502H17.4997C16.8163 28.7502 16.2497 28.1835 16.2497 27.5002C16.2497 26.8168 16.8163 26.2502 17.4997 26.2502H24.1663C24.8497 26.2502 25.4163 26.8168 25.4163 27.5002C25.4163 28.1835 24.8497 28.7502 24.1663 28.7502Z" fill="white"/>
</svg>
