<svg width="40" height="40" viewBox="0 0 40 40" fill="none" xmlns="http://www.w3.org/2000/svg">
<path d="M15.4062 22.1406H12.5781V20.0234H15.4062C15.7917 20.0234 16.1042 19.9583 16.3438 19.8281C16.5833 19.6979 16.7578 19.5182 16.8672 19.2891C16.9818 19.0547 17.0391 18.7917 17.0391 18.5C17.0391 18.1875 16.9818 17.8984 16.8672 17.6328C16.7578 17.3672 16.5833 17.1536 16.3438 16.9922C16.1042 16.8255 15.7917 16.7422 15.4062 16.7422H13.6094V26H10.8672V14.625H15.4062C16.3177 14.625 17.1016 14.7917 17.7578 15.125C18.4193 15.4583 18.9271 15.9167 19.2812 16.5C19.6354 17.0781 19.8125 17.7396 19.8125 18.4844C19.8125 19.2188 19.6354 19.8594 19.2812 20.4062C18.9271 20.9531 18.4193 21.3802 17.7578 21.6875C17.1016 21.9896 16.3177 22.1406 15.4062 22.1406ZM24.8906 21.7109L27.5781 14.625H30.4766L26.6406 23.6484C26.4948 23.9818 26.3255 24.2995 26.1328 24.6016C25.9453 24.9036 25.7214 25.1719 25.4609 25.4062C25.2057 25.6406 24.9036 25.8255 24.5547 25.9609C24.2057 26.0964 23.7969 26.1641 23.3281 26.1641C23.2135 26.1641 23.0729 26.1615 22.9062 26.1562C22.7448 26.1562 22.6042 26.1536 22.4844 26.1484L22.4375 24.0234C22.5052 24.0391 22.599 24.0495 22.7188 24.0547C22.8385 24.0547 22.9245 24.0547 22.9766 24.0547C23.2891 24.0547 23.5365 24.0182 23.7188 23.9453C23.901 23.8672 24.0443 23.7526 24.1484 23.6016C24.2578 23.4453 24.3516 23.2474 24.4297 23.0078L24.8906 21.7109ZM23.3672 14.625L25.6953 19.5625L26.5859 22.7188H24.6172L20.4531 14.625H23.3672Z" fill="black"/>
<circle cx="20" cy="20" r="18.5" stroke="black" stroke-width="3"/>
</svg>
