<svg width="41" height="40" viewBox="0 0 41 40" fill="none" xmlns="http://www.w3.org/2000/svg">
<path d="M21.5373 9.8H8.5381C5.68095 9.8 3.3418 12.1333 3.3418 14.9833V33.9167C3.3418 36.3333 5.07947 37.3666 7.20144 36.1833L13.7678 32.5333C14.4696 32.15 15.6058 32.15 16.2908 32.5333L22.8572 36.1833C24.9792 37.3666 26.7169 36.3333 26.7169 33.9167V14.9833C26.7336 12.1333 24.3945 9.8 21.5373 9.8Z" stroke="black" stroke-width="2" stroke-linecap="round" stroke-linejoin="round"/>
<path d="M26.7336 14.9833V33.9167C26.7336 36.3333 24.9959 37.35 22.874 36.1833L16.3076 32.5333C15.6058 32.15 14.4696 32.15 13.7678 32.5333L7.20144 36.1833C5.07947 37.35 3.3418 36.3333 3.3418 33.9167V14.9833C3.3418 12.1333 5.68095 9.8 8.5381 9.8H21.5373C24.3945 9.8 26.7336 12.1333 26.7336 14.9833Z" stroke="black" stroke-width="2" stroke-linecap="round" stroke-linejoin="round"/>
<path d="M36.7585 8.51664V27.45C36.7585 29.8667 35.0208 30.8833 32.8989 29.7166L26.7334 26.2833V14.9833C26.7334 12.1333 24.3943 9.8 21.5372 9.8H13.3667V8.51664C13.3667 5.66664 15.7059 3.33333 18.563 3.33333H31.5622C34.4194 3.33333 36.7585 5.66664 36.7585 8.51664Z" stroke="black" stroke-width="2" stroke-linecap="round" stroke-linejoin="round"/>
</svg>
