<svg width="30" height="30" viewBox="0 0 30 30" fill="none" xmlns="http://www.w3.org/2000/svg">
<path d="M16.1125 7.34961H6.3875C4.25 7.34961 2.5 9.09961 2.5 11.2371V25.4371C2.5 27.2496 3.8 28.0246 5.3875 27.1371L10.3 24.3996C10.825 24.1121 11.675 24.1121 12.1875 24.3996L17.1 27.1371C18.7 28.0121 20 27.2496 20 25.4371V11.2371C20 9.09961 18.25 7.34961 16.1125 7.34961Z" fill="black"/>
<path d="M27.5 6.3875V20.5875C27.5 22.4 26.2 23.1625 24.6125 22.2875L22.2 20.9375C22 20.825 21.875 20.6125 21.875 20.3875V11.2375C21.875 8.0625 19.2875 5.475 16.1125 5.475H11.025C10.5625 5.475 10.2375 4.9875 10.45 4.5875C11.1 3.35 12.4 2.5 13.8875 2.5H23.6125C25.75 2.5 27.5 4.25 27.5 6.3875Z" fill="black"/>
</svg>
