<svg width="40" height="40" viewBox="0 0 40 40" fill="none" xmlns="http://www.w3.org/2000/svg">
<path d="M20.2004 21.3C20.0837 21.2834 19.9337 21.2834 19.8004 21.3C16.867 21.2 14.5337 18.8 14.5337 15.85C14.5337 12.8334 16.967 10.3834 20.0004 10.3834C23.017 10.3834 25.467 12.8334 25.467 15.85C25.4504 18.8 23.1337 21.2 20.2004 21.3Z" stroke="black" stroke-width="3" stroke-linecap="round" stroke-linejoin="round"/>
<path d="M31.2328 32.3C28.2661 35.0167 24.3328 36.6667 19.9994 36.6667C15.6661 36.6667 11.7328 35.0167 8.76611 32.3C8.93278 30.7333 9.93278 29.2 11.7161 28C16.2828 24.9667 23.7494 24.9667 28.2828 28C30.0661 29.2 31.0661 30.7333 31.2328 32.3Z" stroke="black" stroke-width="3" stroke-linecap="round" stroke-linejoin="round"/>
<path d="M20.0002 36.6667C29.2049 36.6667 36.6668 29.2048 36.6668 20C36.6668 10.7953 29.2049 3.33334 20.0002 3.33334C10.7954 3.33334 3.3335 10.7953 3.3335 20C3.3335 29.2048 10.7954 36.6667 20.0002 36.6667Z" stroke="black" stroke-width="3" stroke-linecap="round" stroke-linejoin="round"/>
</svg>
