<svg width="40" height="40" viewBox="0 0 40 40" fill="none" xmlns="http://www.w3.org/2000/svg">
<path d="M18.4922 20.0859V20.5469C18.4922 21.4167 18.3698 22.1979 18.125 22.8906C17.8854 23.5781 17.5443 24.1667 17.1016 24.6562C16.6589 25.1406 16.1354 25.513 15.5312 25.7734C14.9271 26.0286 14.2604 26.1562 13.5312 26.1562C12.7969 26.1562 12.125 26.0286 11.5156 25.7734C10.9115 25.513 10.3854 25.1406 9.9375 24.6562C9.49479 24.1667 9.15104 23.5781 8.90625 22.8906C8.66667 22.1979 8.54688 21.4167 8.54688 20.5469V20.0859C8.54688 19.2161 8.66667 18.4349 8.90625 17.7422C9.15104 17.0495 9.49219 16.4609 9.92969 15.9766C10.3724 15.487 10.8958 15.1146 11.5 14.8594C12.1094 14.599 12.7812 14.4688 13.5156 14.4688C14.2448 14.4688 14.9115 14.599 15.5156 14.8594C16.125 15.1146 16.651 15.487 17.0938 15.9766C17.5365 16.4609 17.8802 17.0495 18.125 17.7422C18.3698 18.4349 18.4922 19.2161 18.4922 20.0859ZM15.7109 20.5469V20.0703C15.7109 19.5078 15.6615 19.013 15.5625 18.5859C15.4688 18.1536 15.3281 17.7917 15.1406 17.5C14.9531 17.2083 14.7214 16.9896 14.4453 16.8438C14.1745 16.6927 13.8646 16.6172 13.5156 16.6172C13.151 16.6172 12.8333 16.6927 12.5625 16.8438C12.2917 16.9896 12.0651 17.2083 11.8828 17.5C11.7005 17.7917 11.5625 18.1536 11.4688 18.5859C11.3802 19.013 11.3359 19.5078 11.3359 20.0703V20.5469C11.3359 21.1042 11.3802 21.599 11.4688 22.0312C11.5625 22.4583 11.7005 22.8203 11.8828 23.1172C12.0703 23.4141 12.2995 23.638 12.5703 23.7891C12.8464 23.9401 13.1667 24.0156 13.5312 24.0156C13.8802 24.0156 14.1901 23.9401 14.4609 23.7891C14.7318 23.638 14.9583 23.4141 15.1406 23.1172C15.3281 22.8203 15.4688 22.4583 15.5625 22.0312C15.6615 21.599 15.7109 21.1042 15.7109 20.5469ZM22.1484 14V15.2812C22.1484 15.6302 22.0781 15.987 21.9375 16.3516C21.8021 16.7161 21.625 17.0599 21.4062 17.3828C21.1927 17.7005 20.9635 17.9688 20.7188 18.1875L19.5625 17.5625C19.7292 17.2656 19.8802 16.9375 20.0156 16.5781C20.1562 16.2135 20.2266 15.7786 20.2266 15.2734V14H22.1484ZM32.3203 23.8906V26H24.0859V23.8906H32.3203ZM32.2656 16.0312L25.4453 26H23.4609V24.5547L30.3594 14.625H32.2656V16.0312ZM31.3828 14.625V16.7422H23.4219V14.625H31.3828Z" fill="black"/>
<circle cx="20" cy="20" r="18.5" stroke="black" stroke-width="3"/>
</svg>
