<svg width="40" height="40" viewBox="0 0 40 40" fill="none" xmlns="http://www.w3.org/2000/svg">
<path d="M24.7503 6.58317V12.9165H22.2503V6.58317C22.2503 6.13317 21.8503 5.9165 21.5837 5.9165C21.5003 5.9165 21.417 5.93317 21.3337 5.9665L8.11699 10.9498C7.23366 11.2832 6.66699 12.1165 6.66699 13.0665V14.1832C5.15033 15.3165 4.16699 17.1332 4.16699 19.1832V13.0665C4.16699 11.0832 5.38366 9.3165 7.23366 8.6165L20.467 3.6165C20.8337 3.48317 21.217 3.4165 21.5837 3.4165C23.2503 3.4165 24.7503 4.7665 24.7503 6.58317Z" fill="white"/>
<path d="M35.8338 24.1668V25.8335C35.8338 26.2835 35.4838 26.6502 35.0171 26.6668H32.5838C31.7005 26.6668 30.9005 26.0168 30.8338 25.1502C30.7838 24.6335 30.9838 24.1502 31.3171 23.8168C31.6171 23.5002 32.0338 23.3335 32.4838 23.3335H35.0005C35.4838 23.3502 35.8338 23.7168 35.8338 24.1668Z" fill="white"/>
<path d="M32.467 21.5832H34.167C35.0837 21.5832 35.8337 20.8332 35.8337 19.9165V19.1832C35.8337 15.7332 33.017 12.9165 29.567 12.9165H10.4337C9.01699 12.9165 7.71699 13.3832 6.66699 14.1832C5.15033 15.3165 4.16699 17.1332 4.16699 19.1832V30.3998C4.16699 33.8498 6.98366 36.6665 10.4337 36.6665H29.567C33.017 36.6665 35.8337 33.8498 35.8337 30.3998V30.0832C35.8337 29.1665 35.0837 28.4165 34.167 28.4165H32.717C31.117 28.4165 29.5837 27.4332 29.167 25.8832C28.817 24.6165 29.2337 23.3998 30.067 22.5832C30.6837 21.9498 31.5337 21.5832 32.467 21.5832ZM23.3337 21.2498H11.667C10.9837 21.2498 10.417 20.6832 10.417 19.9998C10.417 19.3165 10.9837 18.7498 11.667 18.7498H23.3337C24.017 18.7498 24.5837 19.3165 24.5837 19.9998C24.5837 20.6832 24.017 21.2498 23.3337 21.2498Z" fill="white"/>
</svg>
