<svg width="195" height="67" viewBox="0 0 195 67" fill="none" xmlns="http://www.w3.org/2000/svg">
<rect width="195" height="67" fill="black"/>
<path d="M23.5352 13.3438V56H13.252V13.3438H23.5352ZM48.9941 13.3438L32.4707 34.9648L22.8027 45.541L20.9277 36.1074L27.1094 26.7324L36.3086 13.3438H48.9941ZM36.8359 56L25.8203 36.7812L33.8184 30.8926L48.9941 56H36.8359ZM74.2586 13.3438V56H64.0047V13.3438H74.2586ZM128.82 13.3438V56H118.566L103.478 29.457V56H93.1949V13.3438H103.478L118.566 39.8867V13.3438H128.82ZM157.307 13.3438V56H147.024V13.3438H157.307ZM182.766 13.3438L166.243 34.9648L156.575 45.541L154.7 36.1074L160.881 26.7324L170.08 13.3438H182.766ZM170.608 56L159.592 36.7812L167.59 30.8926L182.766 56H170.608Z" fill="white"/>
</svg>
